<?xml version="1.0" encoding="utf-8"?>
<!-- Generator: Adobe Illustrator 24.1.1, SVG Export Plug-In . SVG Version: 6.00 Build 0)  -->
<svg version="1.1" id="Layer_1" xmlns="http://www.w3.org/2000/svg" xmlns:xlink="http://www.w3.org/1999/xlink" x="0px" y="0px"
	 viewBox="0 0 512 512" style="enable-background:new 0 0 512 512;" xml:space="preserve">
<style type="text/css">
	.st0{fill-rule:evenodd;clip-rule:evenodd;}
</style>
<g>
	<path class="st0" d="M72.5,58.8c10.8-13.3,26.8-19.5,42.3-19.5h282.5c15.5,0,31.4,6.2,42.3,19.5C462.3,86.7,512,158.6,512,256
		s-49.7,169.2-72.5,197.2c-10.9,13.3-26.8,19.5-42.3,19.5H114.8c-15.5,0-31.5-6.2-42.3-19.5C49.7,425.2,0,353.4,0,256
		S49.7,86.8,72.5,58.8z M114.8,78.8l-11.8,5C82.7,108.7,39.4,171.8,39.4,256S82.7,403.3,103,428.3c2.4,2.9,6.4,5,11.8,5h282.4
		c5.4,0,9.4-2.1,11.8-5c20.3-24.9,63.6-88.1,63.6-172.3S429.3,108.7,409,83.7l-11.8-5H114.8L114.8,78.8z"/>
	<path class="st0" d="M177.2,157.5c10.9,0,19.7,8.8,19.7,19.7v59.1c0,10.9-8.8,19.7-19.7,19.7s-19.7-8.8-19.7-19.7v-59.1
		C157.5,166.4,166.4,157.5,177.2,157.5z M334.8,157.5c10.9,0,19.7,8.8,19.7,19.7v59.1c0,10.9-8.8,19.7-19.7,19.7
		s-19.7-8.8-19.7-19.7v-59.1C315.1,166.4,323.9,157.5,334.8,157.5z"/>
	<path d="M216.6,334.8v39.4h78.8v-39.4c0-21.7-17.6-39.4-39.4-39.4S216.6,313,216.6,334.8z"/>
</g>
</svg>
