<?xml version="1.0" encoding="utf-8"?>
<svg version="1.1" xmlns="http://www.w3.org/2000/svg" x="0px" y="0px" viewBox="0 0 1000 1000"
     enable-background="new 0 0 1000 1000" xml:space="preserve">
    <g class="resistor" transform="translate(0,511) scale(0.1,-0.1)"><path d="M2995.9,1925.3c-159.2-53.7-224.4-109.3-767.1-648.2l-556.2-552.3l-556.2-5.8l-558.1-5.7L431.8,650C213.1,542.6,100,358.4,100,109.1c0-124.7,9.6-163,63.3-272.3c69-140,151.5-218.6,304.9-289.6C558.4-495,575.6-495,1317.8-495h757.5l113.1,53.7c90.1,42.2,182.2,120.8,452.6,387.4c186,184.1,343.3,335.6,351,335.6c7.7,0,207.1-389.3,444.9-864.9c471.8-943.6,514-1008.8,705.7-1093.2c140-63.3,347.1-63.3,487.1,0c186,82.5,239.7,163,623.3,930.1c193.7,385.5,354.8,701.9,360.5,701.9s166.8-316.4,360.5-701.9c383.6-767.1,437.3-847.7,623.3-930.1c74.8-34.5,134.2-44.1,243.6-46c255.1,0,289.6,23,930.1,661.6l556.2,554.2l556.2,5.8l558.1,5.7l126.6,63.3c216.7,105.5,329.9,293.4,331.8,540.8c0,124.7-7.7,161.1-63.3,272.3c-71,143.8-138.1,211-291.5,281.9l-105.5,49.9h-757.5h-757.5l-115.1-53.7c-92.1-44.1-180.3-118.9-460.3-397L7004.1-82.6l-437.3,874.5C6089.3,1745,6049,1810.2,5857.3,1894.6c-140,63.3-347.1,63.3-487.1,0c-186-82.5-239.7-163-623.3-930.1c-193.7-385.5-354.8-701.9-360.5-701.9c-5.7,0-166.9,316.4-360.5,701.9c-385.5,769-437.3,849.6-623.3,928.2C3281.6,1944.5,3101.4,1959.8,2995.9,1925.3z"/></g>
</svg>